<?xml version="1.0" encoding="UTF-8"?>
<svg width="251px" height="50px" viewBox="0 0 251 50" version="1.1" xmlns="http://www.w3.org/2000/svg" xmlns:xlink="http://www.w3.org/1999/xlink">
    <title>Logo/blue on white</title>
    <g id="Symbols" stroke="none" stroke-width="1" fill="none" fill-rule="evenodd">
        <g id="Header/1440-Copy-2" transform="translate(-50.000000, -43.000000)">
            <g id="Logo/blue-on-white" transform="translate(50.000000, 43.000000)">
                <path d="M7.32176428,20.5946866 C8.4417932,20.5946866 9.26699205,20.214319 9.79736081,19.4526787 C10.3271873,18.6915814 10.5925524,17.4894678 10.5925524,15.8463378 C10.5925524,14.1834743 10.3322487,12.9715845 9.81236443,12.2099441 C9.29193782,11.4486658 8.46203905,11.0679361 7.32176428,11.0679361 C6.28145336,11.0679361 5.30097614,11.3384117 4.38105568,11.8793628 L4.38105568,19.7832599 C5.26120752,20.324211 6.24150398,20.5946866 7.32176428,20.5946866 L7.32176428,20.5946866 Z M0.750180766,29.7606219 C0.490057845,29.7606219 0.300072307,29.7054044 0.180043384,29.5955123 C0.0600144613,29.4850772 -1.42108547e-14,29.2897337 -1.42108547e-14,29.0094819 L-1.42108547e-14,8.96423731 C-1.42108547e-14,8.68380448 0.0600144613,8.48846102 0.180043384,8.37820692 C0.300072307,8.26831491 0.490057845,8.2129163 0.750180766,8.2129163 L2.91070137,8.2129163 C3.37075199,8.2129163 3.65057845,8.43360553 3.75090383,8.87407879 L3.96095445,9.65545264 C4.56109906,9.07467245 5.28597252,8.61392257 6.13647867,8.27302198 C6.98662328,7.93266451 7.85159074,7.76212369 8.73210412,7.76212369 C10.6722704,7.76212369 12.2077007,8.47361564 13.338214,9.89587537 C14.4681851,11.3186782 15.0336226,13.24206 15.0336226,15.6660208 C15.0336226,17.3292463 14.7532538,18.7817399 14.1934201,20.0236826 C13.6332249,21.2661684 12.873102,22.2227902 11.9128706,22.8937289 C10.9526392,23.5652107 9.85231381,23.9004991 8.6120752,23.9004991 C7.79157628,23.9004991 7.01138829,23.7699683 6.27151121,23.5098121 C5.53109183,23.2496559 4.90093999,22.8890218 4.38105568,22.4279099 L4.38105568,29.0094819 C4.38105568,29.2897337 4.32574114,29.4850772 4.21601591,29.5955123 C4.10574837,29.7054044 3.91070137,29.7606219 3.63087491,29.7606219 L0.750180766,29.7606219 Z M18.6642444,23.5699359 C18.4041215,23.5699359 18.2141359,23.5098302 18.094107,23.3896189 C17.9740781,23.2694075 17.9140636,23.0793142 17.9140636,22.8186149 L17.9140636,8.96425542 C17.9140636,8.68382258 17.9740781,8.48847912 18.094107,8.37822503 C18.2141359,8.26833301 18.4041215,8.2129344 18.6642444,8.2129344 L20.824765,8.2129344 C21.2848156,8.2129344 21.5646421,8.43362364 21.6649675,8.87409689 L22.0550615,10.4969503 C22.854953,9.61546064 23.6101952,8.98960119 24.3206074,8.61864775 C25.0304772,8.24823744 25.7857195,8.0626702 26.5861533,8.0626702 L27.0062545,8.0626702 C27.286081,8.0626702 27.4863702,8.11806881 27.6063991,8.22796082 C27.7264281,8.33839596 27.7864425,8.53355838 27.7864425,8.81399121 L27.7864425,11.3384298 C27.7864425,11.5989481 27.731128,11.7892224 27.6214027,11.9094338 C27.5111352,12.0296452 27.3160882,12.0897508 27.0362617,12.0897508 C26.8961678,12.0897508 26.7159436,12.0799746 26.4961316,12.059698 C26.2757773,12.0399645 25.9959508,12.0296452 25.6559291,12.0296452 C25.195517,12.0296452 24.6356833,12.095001 23.9755242,12.2249886 C23.3153651,12.3555193 22.7549892,12.5208099 22.2951193,12.7208605 L22.2951193,22.8186149 C22.2951193,23.0793142 22.2398048,23.2694075 22.1300795,23.3896189 C22.019812,23.5098302 21.824765,23.5699359 21.5449385,23.5699359 L18.6642444,23.5699359 Z M30.4648228,23.5699359 C30.2046999,23.5699359 30.0147144,23.5098302 29.8946855,23.3896189 C29.7746565,23.2694075 29.7146421,23.0793142 29.7146421,22.8186149 L29.7146421,8.96425542 C29.7146421,8.68382258 29.7746565,8.48847912 29.8946855,8.37822503 C30.0147144,8.26833301 30.2046999,8.2129344 30.4648228,8.2129344 L33.345517,8.2129344 C33.6253435,8.2129344 33.8203905,8.26833301 33.930658,8.37822503 C34.0403832,8.48847912 34.0956978,8.68382258 34.0956978,8.96425542 L34.0956978,22.8186149 C34.0956978,23.0793142 34.0403832,23.2694075 33.930658,23.3896189 C33.8203905,23.5098302 33.6253435,23.5699359 33.345517,23.5699359 L30.4648228,23.5699359 Z M31.9051699,5.83876 C31.1446855,5.83876 30.5345987,5.62839012 30.0747289,5.20765035 C29.6143167,4.78691058 29.3845625,4.21590661 29.3845625,3.49463844 C29.3845625,2.77337027 29.6143167,2.2023663 30.0747289,1.78162653 C30.5345987,1.36088676 31.1446855,1.15051688 31.9051699,1.15051688 C32.6651121,1.15051688 33.2751988,1.36088676 33.735611,1.78162653 C34.1954808,2.2023663 34.4257773,2.77337027 34.4257773,3.49463844 C34.4257773,4.21590661 34.1954808,4.78691058 33.735611,5.20765035 C33.2751988,5.62839012 32.6651121,5.83876 31.9051699,5.83876 L31.9051699,5.83876 Z M38.4992769,23.5699359 C38.239154,23.5699359 38.0491685,23.5098302 37.9291396,23.3896189 C37.8091106,23.2694075 37.7490962,23.0793142 37.7490962,22.8186149 L37.7490962,8.96425542 C37.7490962,8.68382258 37.8091106,8.48847912 37.9291396,8.37822503 C38.0491685,8.26833301 38.239154,8.2129344 38.4992769,8.2129344 L40.6597975,8.2129344 C41.1198482,8.2129344 41.3996746,8.43362364 41.5,8.87409689 L41.7400578,9.68552359 C42.8000723,8.98453203 43.7552422,8.48847912 44.6057484,8.19790798 C45.4557122,7.90769893 46.3311641,7.76214179 47.2313811,7.76214179 C49.0318149,7.76214179 50.30188,8.40357079 51.0422993,9.68552359 C52.0625452,9.00462761 53.0227766,8.51346281 53.9229935,8.2129344 C54.8232104,7.912406 55.7534346,7.76214179 56.7136659,7.76214179 C58.1137021,7.76214179 59.1990239,8.15282872 59.9694505,8.93420258 C60.7393348,9.71557643 61.1247289,10.807798 61.1247289,12.2099622 L61.1247289,22.8186149 C61.1247289,23.0793142 61.0694143,23.2694075 60.9596891,23.3896189 C60.8494215,23.5098302 60.6543745,23.5699359 60.3745481,23.5699359 L57.4938539,23.5699359 C57.233731,23.5699359 57.0437455,23.5098302 56.9237166,23.3896189 C56.8036876,23.2694075 56.7436732,23.0793142 56.7436732,22.8186149 L56.7436732,13.1716531 C56.7436732,11.809499 56.1332249,11.1280599 54.9132321,11.1280599 C53.8329718,11.1280599 52.7424078,11.3885782 51.642444,11.9094338 L51.642444,22.8186149 C51.642444,23.0793142 51.5871294,23.2694075 51.4774042,23.3896189 C51.3673174,23.5098302 51.1720897,23.5699359 50.8922632,23.5699359 L48.0115691,23.5699359 C47.7514461,23.5699359 47.5614606,23.5098302 47.4414317,23.3896189 C47.3214027,23.2694075 47.2613883,23.0793142 47.2613883,22.8186149 L47.2613883,13.1716531 C47.2613883,11.809499 46.65094,11.1280599 45.4309472,11.1280599 C44.310376,11.1280599 43.2104121,11.3985355 42.1301518,11.9394866 L42.1301518,22.8186149 C42.1301518,23.0793142 42.0748373,23.2694075 41.9651121,23.3896189 C41.8548445,23.5098302 41.6597975,23.5699359 41.3799711,23.5699359 L38.4992769,23.5699359 Z M73.2460774,12.7869767 C73.2460774,11.3214482 72.2140817,10.9016136 70.9431128,10.9016136 C70.107068,10.9016136 69.2963304,11.2039524 68.7430043,11.8106215 C68.2034165,12.4022642 67.8700832,13.3018579 67.7289046,14.4333655 C67.7289046,14.4333655 69.9776392,14.8417944 71.6034526,14.5729482 C72.4470897,14.4333655 73.2460774,13.9637446 73.2460774,12.7869767 M71.422867,24.0502744 C68.9772777,24.0502744 67.1168294,23.4778221 65.6217101,21.9539983 C64.6406905,20.9541077 63.7162509,19.0989785 63.7162509,15.9182655 C63.7162509,13.3539978 64.5275307,11.3942267 65.8476681,9.97142386 C67.168167,8.54898309 69.184436,7.88202728 71.0898952,7.88202728 C73.470047,7.88202728 74.8811099,8.42315945 75.9613702,9.50506171 C76.1387021,9.6824821 77.2245128,10.806748 77.2245128,12.6115478 C77.2245128,13.2328812 77.2433659,13.8763017 76.8180224,14.77843 C76.5298807,15.3894441 76.0933297,15.7723463 75.9781815,15.8778933 C74.2081164,17.4996604 70.7397505,17.3921219 69.5662148,17.3254988 L67.6667209,17.0358328 C67.7909074,18.3539939 68.1600325,19.3893685 68.9658894,19.9777525 C69.7238431,20.5310144 70.555188,20.7641955 72.2536696,20.7641955 C73.1048988,20.7641955 74.2410159,20.5934736 75.7016088,20.212744 C75.7802422,20.1913811 75.9335322,20.1526383 75.9866775,20.1444914 C76.0208424,20.1392412 76.1631056,20.1231286 76.2630694,20.1573454 C76.4230477,20.2118388 76.6032719,20.3639134 76.6032719,20.7991364 L76.6032719,22.1817481 C76.6032719,22.5023721 76.5674801,22.7279495 76.4774584,22.8581181 C76.3874367,22.9886488 76.2077549,23.1144724 75.9481743,23.2144072 C74.4275669,23.7750918 73.0078272,24.0502744 71.422867,24.0502744 M135.924259,12.7869767 C135.924259,11.3214482 134.892263,10.9016136 133.621294,10.9016136 C132.785249,10.9016136 131.974512,11.2039524 131.421186,11.8106215 C130.881598,12.4022642 130.548265,13.3018579 130.407086,14.4333655 C130.407086,14.4333655 132.655821,14.8417944 134.281634,14.5729482 C135.125271,14.4333655 135.924259,13.9637446 135.924259,12.7869767 M134.101048,24.0502744 C131.655459,24.0502744 129.795011,23.4778221 128.299892,21.9539983 C127.318872,20.9541077 126.394432,19.0989785 126.394432,15.9182655 C126.394432,13.3539978 127.205712,11.3942267 128.52585,9.97142386 C129.846349,8.54898309 131.862617,7.88202728 133.768077,7.88202728 C136.148228,7.88202728 137.559291,8.42315945 138.639552,9.50506171 C138.816884,9.6824821 139.902694,10.806748 139.902694,12.6115478 C139.902694,13.2328812 139.921547,13.8763017 139.496204,14.77843 C139.208062,15.3894441 138.771511,15.7723463 138.656363,15.8778933 C136.886298,17.4996604 133.417932,17.3921219 132.244396,17.3254988 L130.344902,17.0358328 C130.469089,18.3539939 130.838214,19.3893685 131.644071,19.9777525 C132.402025,20.5310144 133.233369,20.7641955 134.931851,20.7641955 C135.78308,20.7641955 136.919197,20.5934736 138.37979,20.212744 C138.458424,20.1913811 138.611714,20.1526383 138.664859,20.1444914 C138.699024,20.1392412 138.841287,20.1231286 138.941251,20.1573454 C139.101229,20.2118388 139.281453,20.3639134 139.281453,20.7991364 L139.281453,22.1817481 C139.281453,22.5023721 139.245662,22.7279495 139.15564,22.8581181 C139.065618,22.9886488 138.885936,23.1144724 138.626356,23.2144072 C137.105748,23.7750918 135.686009,24.0502744 134.101048,24.0502744 M90.4322307,23.5699359 C90.2321222,23.5699359 90.0669017,23.5449522 89.9372921,23.4948038 C89.8067787,23.4450175 89.6972343,23.3648162 89.6072126,23.2543811 C89.5171909,23.1444891 89.4318691,22.9891557 89.3519704,22.7885621 L84.2209147,9.41504802 C84.1609002,9.2550076 84.1106471,9.11451962 84.0708785,8.99430826 C84.0303868,8.87409689 84.0108641,8.76420488 84.0108641,8.66372701 C84.0108641,8.36319861 84.2104302,8.2129344 84.6110087,8.2129344 L87.611551,8.2129344 C87.9313268,8.2129344 88.1668655,8.27304008 88.3169017,8.39325145 C88.466757,8.51346281 88.5817245,8.71387543 88.661804,8.99430826 L91.7527296,19.6330138 L94.903308,8.99430826 C94.9832068,8.71387543 95.098355,8.51346281 95.2485719,8.39325145 C95.3986081,8.27304008 95.633243,8.2129344 95.9535611,8.2129344 L98.8642625,8.2129344 C99.2641179,8.2129344 99.4645879,8.36319861 99.4645879,8.66372701 C99.4645879,8.76420488 99.4441612,8.87409689 99.4045734,8.99430826 C99.3640817,9.11451962 99.3145517,9.2550076 99.2545372,9.41504802 L94.12312,22.7885621 C94.0430405,22.9891557 93.958261,23.1444891 93.8682393,23.2543811 C93.7782176,23.3648162 93.6731923,23.4450175 93.5531634,23.4948038 C93.4331345,23.5449522 93.2628525,23.5699359 93.0428597,23.5699359 L90.4322307,23.5699359 Z M102.079519,23.5699359 C101.819396,23.5699359 101.629591,23.5098302 101.509563,23.3896189 C101.389534,23.2694075 101.329519,23.0793142 101.329519,22.8186149 L101.329519,8.96425542 C101.329519,8.68382258 101.389534,8.48847912 101.509563,8.37822503 C101.629591,8.26833301 101.819396,8.2129344 102.079519,8.2129344 L104.960394,8.2129344 C105.240221,8.2129344 105.435087,8.26833301 105.545535,8.37822503 C105.65508,8.48847912 105.710394,8.68382258 105.710394,8.96425542 L105.710394,22.8186149 C105.710394,23.0793142 105.65508,23.2694075 105.545535,23.3896189 C105.435087,23.5098302 105.240221,23.5699359 104.960394,23.5699359 L102.079519,23.5699359 Z M103.520047,5.83876 C102.759563,5.83876 102.149476,5.62839012 101.689606,5.20765035 C101.229013,4.78691058 100.999259,4.21590661 100.999259,3.49463844 C100.999259,2.77337027 101.229013,2.2023663 101.689606,1.78162653 C102.149476,1.36088676 102.759563,1.15051688 103.520047,1.15051688 C104.279989,1.15051688 104.889895,1.36088676 105.350488,1.78162653 C105.810358,2.2023663 106.040474,2.77337027 106.040474,3.49463844 C106.040474,4.21590661 105.810358,4.78691058 105.350488,5.20765035 C104.889895,5.62839012 104.279989,5.83876 103.520047,5.83876 L103.520047,5.83876 Z M116.326681,20.5946866 C117.286913,20.5946866 118.206833,20.3144348 119.087346,19.7532071 L119.087346,11.8192572 C118.227079,11.3186782 117.236659,11.0679361 116.116631,11.0679361 C115.056074,11.0679361 114.266124,11.4636922 113.74624,12.2550234 C113.225633,13.0467166 112.965871,14.24358 112.965871,15.8463378 C112.965871,17.4494577 113.240636,18.641252 113.79107,19.4226258 C114.341142,20.2039997 115.186406,20.5946866 116.326681,20.5946866 M114.886334,23.9004991 C113.585719,23.9004991 112.455748,23.5652107 111.495517,22.8937289 C110.535286,22.2227902 109.800289,21.2911521 109.289986,20.0988147 C108.779863,18.9070205 108.524801,17.5292969 108.524801,15.9665492 C108.524801,13.4824827 109.114823,11.4937451 110.295228,10.0010603 C111.475452,8.50873763 113.035828,7.76212369 114.976356,7.76212369 C116.556435,7.76212369 117.927007,8.2129163 119.087346,9.11450151 L119.087346,2.08213683 C119.087346,1.80188504 119.147361,1.60654158 119.26757,1.49610644 C119.387599,1.38621443 119.577223,1.33081582 119.837527,1.33081582 L122.718221,1.33081582 C122.998048,1.33081582 123.193095,1.38621443 123.303362,1.49610644 C123.413087,1.60654158 123.468402,1.80188504 123.468402,2.08213683 L123.468402,22.8185968 C123.468402,23.0792961 123.413087,23.2693894 123.303362,23.3896008 C123.193095,23.5098121 122.998048,23.5699178 122.718221,23.5699178 L120.317643,23.5699178 C120.077585,23.5699178 119.89248,23.5201315 119.762509,23.4196536 C119.632176,23.3197189 119.537455,23.149178 119.47744,22.9087553 L119.297578,22.21754 C118.056797,23.3398144 116.586443,23.9004991 114.886334,23.9004991 M149.574114,20.6547923 C151.67462,20.6547923 152.725054,19.0619917 152.725054,15.8763906 C152.725054,12.7110662 151.67462,11.1280418 149.574114,11.1280418 C147.473608,11.1280418 146.423355,12.7110662 146.423355,15.8763906 C146.423355,19.0619917 147.473608,20.6547923 149.574114,20.6547923 M149.574114,24.0207104 C147.193239,24.0207104 145.332791,23.3046924 143.992769,21.8719323 C142.652386,20.4397153 141.982285,18.4412014 141.982285,15.8763906 C141.982285,13.3322185 142.652386,11.3434809 143.992769,9.91090179 C145.332791,8.47868479 147.193239,7.76212369 149.574114,7.76212369 C151.954628,7.76212369 153.815076,8.47868479 155.155459,9.91090179 C156.495481,11.3434809 157.165944,13.3322185 157.165944,15.8763906 C157.165944,18.4412014 156.495481,20.4397153 155.155459,21.8719323 C153.815076,23.3046924 151.954628,24.0207104 149.574114,24.0207104 M38.82735,31.3220661 C39.0014281,31.3220661 39.1986443,31.3789131 39.407068,31.5090817 C50.9493673,38.7590579 65.2284707,43.126315 79.9743131,43.126315 C89.9256869,43.126315 100.858984,40.8960683 110.920987,36.2883886 C112.437075,35.5964491 113.707683,37.3664889 112.224132,38.5555676 C103.248174,45.7021693 90.2357014,49.5051209 79.0305315,49.5051209 C63.3282538,49.5051209 49.1883406,43.2374743 38.4838937,32.8069661 C38.2740239,32.6025706 38.1635756,32.3786226 38.1324837,32.1682527 L38.1324837,32.1682527 L38.1324837,31.9218557 C38.184906,31.5814982 38.4537057,31.3220661 38.82735,31.3220661 Z M113.92914,30.3719076 C116.665763,30.3719076 118.876175,30.9586621 119.346891,31.5859699 C120.336045,32.8950789 119.092372,41.9710367 114.274946,46.299551 C113.537961,46.9701276 112.836587,46.6089504 113.161786,45.7343403 C114.244758,42.8309825 116.669017,36.3127748 115.520065,34.7322851 C114.503118,33.3283475 109.326622,33.8200955 106.15173,34.2104472 L105.679908,34.269432 C105.452724,34.2982551 105.239253,34.3258722 105.042299,34.3513744 C104.594722,34.4082213 104.340202,34.2246455 104.302965,33.9514543 L104.302965,33.9514543 L104.302965,33.8040868 C104.333153,33.5672849 104.500904,33.2906539 104.820499,33.0484208 C107.474512,31.0413979 111.003073,30.3719076 113.92914,30.3719076 Z M171.879754,7.10542736e-15 L171.879754,28.6101231 L170.07209,28.6101231 L170.07209,7.10542736e-15 L171.879754,7.10542736e-15 Z" id="Combined-Shape" fill="#FFFFFF"></path>
                <path d="M188.018547,23.2553225 C187.806869,23.2553225 187.652675,23.2064414 187.555061,23.1088602 C187.457628,23.0110979 187.408821,22.8564887 187.408821,22.6446705 L187.408821,9.260294 L182.872668,9.260294 C182.661171,9.260294 182.506978,9.21141287 182.409544,9.11365062 C182.311931,9.01606941 182.263124,8.86146022 182.263124,8.649642 L182.263124,6.93988884 C182.263124,6.712139 182.311931,6.55336586 182.409544,6.46356942 C182.506978,6.37449714 182.661171,6.32941788 182.872668,6.32941788 L195.602965,6.32941788 C195.830369,6.32941788 195.988901,6.37449714 196.07838,6.46356942 C196.167498,6.55336586 196.212509,6.712139 196.212509,6.93988884 L196.212509,8.649642 C196.212509,8.86146022 196.167498,9.01606941 196.07838,9.11365062 C195.988901,9.21141287 195.830369,9.260294 195.602965,9.260294 L191.066992,9.260294 L191.066992,22.6446705 C191.066992,22.8564887 191.021981,23.0110979 190.932683,23.1088602 C190.843203,23.2064414 190.684671,23.2553225 190.457086,23.2553225 L188.018547,23.2553225 Z" id="Fill-28" fill="#1A98FF"></path>
                <path d="M202.36175,23.2553225 C202.150253,23.2553225 201.995879,23.2064414 201.898265,23.1088602 C201.800832,23.0110979 201.751844,22.8564887 201.751844,22.6446705 L201.751844,6.93988884 C201.751844,6.712139 201.800832,6.55336586 201.898265,6.46356942 C201.995879,6.37449714 202.150253,6.32941788 202.36175,6.32941788 L212.262871,6.32941788 C212.490275,6.32941788 212.648807,6.37449714 212.738467,6.46356942 C212.827585,6.55336586 212.872596,6.712139 212.872596,6.93988884 L212.872596,8.55206079 C212.872596,8.76369797 212.827585,8.91830716 212.738467,9.01606941 C212.648807,9.11365062 212.490275,9.16253175 212.262871,9.16253175 L205.410195,9.16253175 L205.410195,13.1680685 L210.872777,13.1680685 C211.100362,13.1680685 211.258713,13.2131477 211.348373,13.3024011 C211.437491,13.3921975 211.482502,13.5509706 211.482502,13.7787205 L211.482502,15.3907114 C211.482502,15.6025296 211.437491,15.7571388 211.348373,15.85472 C211.258713,15.9524823 211.100362,16.0013634 210.872777,16.0013634 L205.410195,16.0013634 L205.410195,20.4222086 L212.262871,20.4222086 C212.490275,20.4222086 212.648807,20.4671069 212.738467,20.5563602 C212.827585,20.6461566 212.872596,20.8049298 212.872596,21.0326796 L212.872596,22.6446705 C212.872596,22.8564887 212.827585,23.0110979 212.738467,23.1088602 C212.648807,23.2064414 212.490275,23.2553225 212.262871,23.2553225 L202.36175,23.2553225 Z" id="Fill-30" fill="#1A98FF"></path>
                <path d="M226.232719,23.5728326 C223.484888,23.5728326 221.404085,22.8361759 219.989588,21.3625005 C218.57509,19.8890061 217.867932,17.727374 217.867932,14.8777854 C217.867932,12.0609653 218.607448,9.87923768 220.087021,8.33205952 C221.566414,6.78542448 223.647578,6.0118354 226.330333,6.0118354 C227.516703,6.0118354 228.695662,6.1827383 229.866305,6.52472514 C230.061352,6.57360626 230.199458,6.65525585 230.280803,6.76894973 C230.361967,6.88318673 230.40282,7.07853019 230.40282,7.35516116 L230.40282,8.94271151 C230.40282,9.31746681 230.264534,9.50448238 229.988322,9.50448238 C229.923247,9.50448238 229.752422,9.472076 229.476211,9.40690117 C228.451988,9.19544504 227.549602,9.08935489 226.769234,9.08935489 C225.077983,9.08935489 223.814244,9.53743188 222.977115,10.4326807 C222.139443,11.3282915 221.72115,12.6960578 221.72115,14.5357986 L221.72115,15.0977505 C221.72115,16.9213786 222.127151,18.2770152 222.940419,19.1642981 C223.753145,20.0519432 224.996819,20.4953131 226.67162,20.4953131 C227.061894,20.4953131 227.549602,20.4587428 228.134924,20.3854211 C228.720065,20.3122804 229.248265,20.2186821 229.720065,20.1046262 C229.996276,20.0396324 230.16692,20.0068639 230.232176,20.0068639 C230.508388,20.0068639 230.646855,20.1942416 230.646855,20.5686348 L230.646855,22.1806257 C230.646855,22.441325 230.610159,22.6287027 230.536949,22.7423966 C230.463738,22.8564525 230.321294,22.946249 230.110159,23.0110617 C228.890709,23.3854549 227.598409,23.5728326 226.232719,23.5728326" id="Fill-32" fill="#1A98FF"></path>
                <path d="M236.591757,23.2553225 C236.38026,23.2553225 236.225886,23.2064414 236.128272,23.1088602 C236.030839,23.0110979 235.981851,22.8564887 235.981851,22.6446705 L235.981851,6.93988884 C235.981851,6.712139 236.030839,6.55336586 236.128272,6.46356942 C236.225886,6.37449714 236.38026,6.32941788 236.591757,6.32941788 L239.030477,6.32941788 C239.257881,6.32941788 239.416414,6.37449714 239.505893,6.46356942 C239.595192,6.55336586 239.640202,6.712139 239.640202,6.93988884 L239.640202,13.2169496 L246.371041,13.2169496 L246.371041,6.93988884 C246.371041,6.712139 246.419667,6.55336586 246.517101,6.46356942 C246.614714,6.37449714 246.769089,6.32941788 246.980586,6.32941788 L249.419306,6.32941788 C249.646891,6.32941788 249.805242,6.37449714 249.894902,6.46356942 C249.98402,6.55336586 250.029031,6.712139 250.029031,6.93988884 L250.029031,22.6446705 C250.029031,22.8564887 249.98402,23.0110979 249.894902,23.1088602 C249.805242,23.2064414 249.646891,23.2553225 249.419306,23.2553225 L246.980586,23.2553225 C246.769089,23.2553225 246.614714,23.2064414 246.517101,23.1088602 C246.419667,23.0110979 246.371041,22.8564887 246.371041,22.6446705 L246.371041,16.0502445 L239.640202,16.0502445 L239.640202,22.6446705 C239.640202,22.8564887 239.595192,23.0110979 239.505893,23.1088602 C239.416414,23.2064414 239.257881,23.2553225 239.030477,23.2553225 L236.591757,23.2553225 Z" id="Fill-34" fill="#1A98FF"></path>
            </g>
        </g>
    </g>
</svg>